<svg height="678" version="1.1" width="1148" xmlns="http://www.w3.org/2000/svg" style="overflow: hidden; position: relative;"><desc style="-webkit-tap-highlight-color: rgba(0, 0, 0, 0);">Created with Raphaël 2.0.1</desc><defs style="-webkit-tap-highlight-color: rgba(0, 0, 0, 0);"></defs><rect x="0" y="0" width="1148" height="678" r="0" rx="0" ry="0" fill="#b5333d" stroke="none" style="-webkit-tap-highlight-color: rgba(0, 0, 0, 0);"></rect><path fill="#203574" stroke="#8622d2" d="M669,472S320,98,795,410" stroke-width="84" opacity="0.18" style="-webkit-tap-highlight-color: rgba(0, 0, 0, 0); opacity: 0.18;"></path><path fill="#203574" stroke="#8622d2" d="M669,472S422,571,481,590" stroke-width="120" opacity="0.18" style="-webkit-tap-highlight-color: rgba(0, 0, 0, 0); opacity: 0.18;"></path><path fill="#203574" stroke="#8622d2" d="M669,472S300,382,750,326" stroke-width="164" opacity="0.18" style="-webkit-tap-highlight-color: rgba(0, 0, 0, 0); opacity: 0.18;"></path><path fill="#203574" stroke="#8622d2" d="M669,472S764,66,406,564" stroke-width="126" opacity="0.18" style="-webkit-tap-highlight-color: rgba(0, 0, 0, 0); opacity: 0.18;"></path><path fill="#203574" stroke="#8622d2" d="M669,472S710,268,325,133" stroke-width="79" opacity="0.18" style="-webkit-tap-highlight-color: rgba(0, 0, 0, 0); opacity: 0.18;"></path><path fill="#203574" stroke="#8622d2" d="M669,472S713,477,307,134" stroke-width="107" opacity="0.18" style="-webkit-tap-highlight-color: rgba(0, 0, 0, 0); opacity: 0.18;"></path><path fill="#203574" stroke="#8622d2" d="M669,472S474,461,712,541" stroke-width="147" opacity="0.18" style="-webkit-tap-highlight-color: rgba(0, 0, 0, 0); opacity: 0.18;"></path><path fill="#203574" stroke="#8622d2" d="M669,472S620,175,393,449" stroke-width="118" opacity="0.18" style="-webkit-tap-highlight-color: rgba(0, 0, 0, 0); opacity: 0.18;"></path><path fill="#203574" stroke="#8622d2" d="M669,472S605,435,494,339" stroke-width="162" opacity="0.18" style="-webkit-tap-highlight-color: rgba(0, 0, 0, 0); opacity: 0.18;"></path><path fill="#203574" stroke="#8622d2" d="M669,472S826,208,825,579" stroke-width="120" opacity="0.18" style="-webkit-tap-highlight-color: rgba(0, 0, 0, 0); opacity: 0.18;"></path><path fill="#203574" stroke="#8622d2" d="M669,472S733,439,314,114" stroke-width="109" opacity="0.18" style="-webkit-tap-highlight-color: rgba(0, 0, 0, 0); opacity: 0.18;"></path><path fill="#203574" stroke="#8622d2" d="M669,472S436,420,379,399" stroke-width="164" opacity="0.18" style="-webkit-tap-highlight-color: rgba(0, 0, 0, 0); opacity: 0.18;"></path><path fill="#203574" stroke="#8622d2" d="M669,472S361,116,694,112" stroke-width="70" opacity="0.18" style="-webkit-tap-highlight-color: rgba(0, 0, 0, 0); opacity: 0.18;"></path><path fill="#203574" stroke="#8622d2" d="M669,472S429,383,304,207" stroke-width="78" opacity="0.18" style="-webkit-tap-highlight-color: rgba(0, 0, 0, 0); opacity: 0.18;"></path><path fill="#203574" stroke="#8622d2" d="M669,472S423,216,538,395" stroke-width="104" opacity="0.18" style="-webkit-tap-highlight-color: rgba(0, 0, 0, 0); opacity: 0.18;"></path><path fill="#203574" stroke="#8622d2" d="M669,472S308,325,656,278" stroke-width="149" opacity="0.18" style="-webkit-tap-highlight-color: rgba(0, 0, 0, 0); opacity: 0.18;"></path><path fill="#203574" stroke="#8622d2" d="M669,472S577,87,538,402" stroke-width="156" opacity="0.18" style="-webkit-tap-highlight-color: rgba(0, 0, 0, 0); opacity: 0.18;"></path><path fill="#203574" stroke="#8622d2" d="M669,472S320,506,610,104" stroke-width="108" opacity="0.18" style="-webkit-tap-highlight-color: rgba(0, 0, 0, 0); opacity: 0.18;"></path><path fill="#203574" stroke="#8622d2" d="M669,472S704,257,550,613" stroke-width="109" opacity="0.18" style="-webkit-tap-highlight-color: rgba(0, 0, 0, 0); opacity: 0.18;"></path><path fill="#203574" stroke="#8622d2" d="M669,472S585,455,325,485" stroke-width="97" opacity="0.18" style="-webkit-tap-highlight-color: rgba(0, 0, 0, 0); opacity: 0.18;"></path><path fill="#203574" stroke="#8622d2" d="M669,472S532,239,359,163" stroke-width="87" opacity="0.18" style="-webkit-tap-highlight-color: rgba(0, 0, 0, 0); opacity: 0.18;"></path><path fill="#203574" stroke="#8622d2" d="M669,472S782,615,557,80" stroke-width="155" opacity="0.18" style="-webkit-tap-highlight-color: rgba(0, 0, 0, 0); opacity: 0.18;"></path><path fill="#203574" stroke="#8622d2" d="M669,472S410,84,679,164" stroke-width="152" opacity="0.18" style="-webkit-tap-highlight-color: rgba(0, 0, 0, 0); opacity: 0.18;"></path><path fill="#203574" stroke="#8622d2" d="M669,472S627,270,691,300" stroke-width="100" opacity="0.18" style="-webkit-tap-highlight-color: rgba(0, 0, 0, 0); opacity: 0.18;"></path><path fill="#203574" stroke="#8622d2" d="M669,472S545,422,821,369" stroke-width="152" opacity="0.18" style="-webkit-tap-highlight-color: rgba(0, 0, 0, 0); opacity: 0.18;"></path><path fill="#203574" stroke="#8622d2" d="M669,472S336,223,834,189" stroke-width="92" opacity="0.18" style="-webkit-tap-highlight-color: rgba(0, 0, 0, 0); opacity: 0.18;"></path><path fill="#203574" stroke="#8622d2" d="M669,472S342,403,346,543" stroke-width="81" opacity="0.18" style="-webkit-tap-highlight-color: rgba(0, 0, 0, 0); opacity: 0.18;"></path><path fill="#203574" stroke="#8622d2" d="M669,472S621,356,655,154" stroke-width="149" opacity="0.18" style="-webkit-tap-highlight-color: rgba(0, 0, 0, 0); opacity: 0.18;"></path><path fill="#203574" stroke="#8622d2" d="M669,472S447,259,401,370" stroke-width="79" opacity="0.18" style="-webkit-tap-highlight-color: rgba(0, 0, 0, 0); opacity: 0.18;"></path><path fill="#203574" stroke="#8622d2" d="M669,472S604,299,622,391" stroke-width="94" opacity="0.18" style="-webkit-tap-highlight-color: rgba(0, 0, 0, 0); opacity: 0.18;"></path><path fill="#203574" stroke="#8622d2" d="M669,472S722,338,371,453" stroke-width="93" opacity="0.18" style="-webkit-tap-highlight-color: rgba(0, 0, 0, 0); opacity: 0.18;"></path><path fill="#203574" stroke="#8622d2" d="M669,472S772,493,757,368" stroke-width="119" opacity="0.18" style="-webkit-tap-highlight-color: rgba(0, 0, 0, 0); opacity: 0.18;"></path><path fill="#203574" stroke="#8622d2" d="M669,472S506,330,454,561" stroke-width="83" opacity="0.18" style="-webkit-tap-highlight-color: rgba(0, 0, 0, 0); opacity: 0.18;"></path><path fill="#203574" stroke="#8622d2" d="M669,472S679,559,474,247" stroke-width="98" opacity="0.18" style="-webkit-tap-highlight-color: rgba(0, 0, 0, 0); opacity: 0.18;"></path><path fill="#203574" stroke="#8622d2" d="M669,472S822,418,494,172" stroke-width="106" opacity="0.18" style="-webkit-tap-highlight-color: rgba(0, 0, 0, 0); opacity: 0.18;"></path><path fill="#203574" stroke="#8622d2" d="M669,472S555,305,769,230" stroke-width="75" opacity="0.18" style="-webkit-tap-highlight-color: rgba(0, 0, 0, 0); opacity: 0.18;"></path><path fill="#203574" stroke="#8622d2" d="M669,472S487,350,434,489" stroke-width="152" opacity="0.18" style="-webkit-tap-highlight-color: rgba(0, 0, 0, 0); opacity: 0.18;"></path><path fill="#203574" stroke="#8622d2" d="M669,472S362,239,711,181" stroke-width="126" opacity="0.18" style="-webkit-tap-highlight-color: rgba(0, 0, 0, 0); opacity: 0.18;"></path><path fill="#203574" stroke="#8622d2" d="M669,472S772,270,429,592" stroke-width="160" opacity="0.18" style="-webkit-tap-highlight-color: rgba(0, 0, 0, 0); opacity: 0.18;"></path><path fill="#203574" stroke="#8622d2" d="M669,472S350,286,654,218" stroke-width="85" opacity="0.18" style="-webkit-tap-highlight-color: rgba(0, 0, 0, 0); opacity: 0.18;"></path><path fill="#203574" stroke="#8622d2" d="M669,472S599,573,642,172" stroke-width="150" opacity="0.18" style="-webkit-tap-highlight-color: rgba(0, 0, 0, 0); opacity: 0.18;"></path><path fill="#203574" stroke="#8622d2" d="M669,472S327,557,786,409" stroke-width="120" opacity="0.18" style="-webkit-tap-highlight-color: rgba(0, 0, 0, 0); opacity: 0.18;"></path><path fill="#203574" stroke="#8622d2" d="M669,472S802,519,619,77" stroke-width="126" opacity="0.18" style="-webkit-tap-highlight-color: rgba(0, 0, 0, 0); opacity: 0.18;"></path></svg>