<svg height="678" version="1.1" width="1148" xmlns="http://www.w3.org/2000/svg" style="overflow: hidden; position: relative;"><desc style="-webkit-tap-highlight-color: rgba(0, 0, 0, 0);">Created with Raphaël 2.0.1</desc><defs style="-webkit-tap-highlight-color: rgba(0, 0, 0, 0);"></defs><rect x="0" y="0" width="1148" height="678" r="0" rx="0" ry="0" fill="#38ee07" stroke="none" style="-webkit-tap-highlight-color: rgba(0, 0, 0, 0);"></rect><path fill="#c6ab8b" stroke="#845057" d="M7,263S130,370,575,116" stroke-width="61" opacity="0.94" style="-webkit-tap-highlight-color: rgba(0, 0, 0, 0); opacity: 0.94;"></path><path fill="#c6ab8b" stroke="#845057" d="M7,263S827,328,1135,432" stroke-width="44" opacity="0.94" style="-webkit-tap-highlight-color: rgba(0, 0, 0, 0); opacity: 0.94;"></path><path fill="#c6ab8b" stroke="#845057" d="M7,263S1114,464,506,153" stroke-width="103" opacity="0.94" style="-webkit-tap-highlight-color: rgba(0, 0, 0, 0); opacity: 0.94;"></path><path fill="#c6ab8b" stroke="#845057" d="M7,263S89,130,818,577" stroke-width="45" opacity="0.94" style="-webkit-tap-highlight-color: rgba(0, 0, 0, 0); opacity: 0.94;"></path><path fill="#c6ab8b" stroke="#845057" d="M7,263S1069,314,314,286" stroke-width="101" opacity="0.94" style="-webkit-tap-highlight-color: rgba(0, 0, 0, 0); opacity: 0.94;"></path><path fill="#c6ab8b" stroke="#845057" d="M7,263S965,373,188,259" stroke-width="16" opacity="0.94" style="-webkit-tap-highlight-color: rgba(0, 0, 0, 0); opacity: 0.94;"></path><path fill="#c6ab8b" stroke="#845057" d="M7,263S1188,223,733,215" stroke-width="67" opacity="0.94" style="-webkit-tap-highlight-color: rgba(0, 0, 0, 0); opacity: 0.94;"></path><path fill="#c6ab8b" stroke="#845057" d="M7,263S178,255,1147,514" stroke-width="104" opacity="0.94" style="-webkit-tap-highlight-color: rgba(0, 0, 0, 0); opacity: 0.94;"></path><path fill="#c6ab8b" stroke="#845057" d="M7,263S-60,435,447,122" stroke-width="40" opacity="0.94" style="-webkit-tap-highlight-color: rgba(0, 0, 0, 0); opacity: 0.94;"></path><path fill="#c6ab8b" stroke="#845057" d="M7,263S626,298,-65,311" stroke-width="41" opacity="0.94" style="-webkit-tap-highlight-color: rgba(0, 0, 0, 0); opacity: 0.94;"></path><path fill="#c6ab8b" stroke="#845057" d="M7,263S603,420,266,250" stroke-width="85" opacity="0.94" style="-webkit-tap-highlight-color: rgba(0, 0, 0, 0); opacity: 0.94;"></path><path fill="#c6ab8b" stroke="#845057" d="M7,263S1090,462,475,166" stroke-width="63" opacity="0.94" style="-webkit-tap-highlight-color: rgba(0, 0, 0, 0); opacity: 0.94;"></path><path fill="#c6ab8b" stroke="#845057" d="M7,263S577,446,266,138" stroke-width="53" opacity="0.94" style="-webkit-tap-highlight-color: rgba(0, 0, 0, 0); opacity: 0.94;"></path><path fill="#c6ab8b" stroke="#845057" d="M7,263S510,195,91,591" stroke-width="118" opacity="0.94" style="-webkit-tap-highlight-color: rgba(0, 0, 0, 0); opacity: 0.94;"></path><path fill="#c6ab8b" stroke="#845057" d="M7,263S119,382,351,120" stroke-width="42" opacity="0.94" style="-webkit-tap-highlight-color: rgba(0, 0, 0, 0); opacity: 0.94;"></path><path fill="#c6ab8b" stroke="#845057" d="M7,263S-54,280,468,546" stroke-width="81" opacity="0.94" style="-webkit-tap-highlight-color: rgba(0, 0, 0, 0); opacity: 0.94;"></path><path fill="#c6ab8b" stroke="#845057" d="M7,263S349,572,1069,385" stroke-width="21" opacity="0.94" style="-webkit-tap-highlight-color: rgba(0, 0, 0, 0); opacity: 0.94;"></path><path fill="#c6ab8b" stroke="#845057" d="M7,263S224,404,112,448" stroke-width="46" opacity="0.94" style="-webkit-tap-highlight-color: rgba(0, 0, 0, 0); opacity: 0.94;"></path><path fill="#c6ab8b" stroke="#845057" d="M7,263S196,429,316,541" stroke-width="9" opacity="0.94" style="-webkit-tap-highlight-color: rgba(0, 0, 0, 0); opacity: 0.94;"></path><path fill="#c6ab8b" stroke="#845057" d="M7,263S1061,267,1228,208" stroke-width="84" opacity="0.94" style="-webkit-tap-highlight-color: rgba(0, 0, 0, 0); opacity: 0.94;"></path><path fill="#c6ab8b" stroke="#845057" d="M7,263S822,527,592,321" stroke-width="110" opacity="0.94" style="-webkit-tap-highlight-color: rgba(0, 0, 0, 0); opacity: 0.94;"></path><path fill="#c6ab8b" stroke="#845057" d="M7,263S793,547,1078,356" stroke-width="51" opacity="0.94" style="-webkit-tap-highlight-color: rgba(0, 0, 0, 0); opacity: 0.94;"></path><path fill="#c6ab8b" stroke="#845057" d="M7,263S-62,327,25,385" stroke-width="35" opacity="0.94" style="-webkit-tap-highlight-color: rgba(0, 0, 0, 0); opacity: 0.94;"></path><path fill="#c6ab8b" stroke="#845057" d="M7,263S621,139,31,340" stroke-width="85" opacity="0.94" style="-webkit-tap-highlight-color: rgba(0, 0, 0, 0); opacity: 0.94;"></path><path fill="#c6ab8b" stroke="#845057" d="M7,263S1009,149,420,321" stroke-width="109" opacity="0.94" style="-webkit-tap-highlight-color: rgba(0, 0, 0, 0); opacity: 0.94;"></path><path fill="#c6ab8b" stroke="#845057" d="M7,263S34,123,539,254" stroke-width="76" opacity="0.94" style="-webkit-tap-highlight-color: rgba(0, 0, 0, 0); opacity: 0.94;"></path><path fill="#c6ab8b" stroke="#845057" d="M7,263S506,461,306,184" stroke-width="83" opacity="0.94" style="-webkit-tap-highlight-color: rgba(0, 0, 0, 0); opacity: 0.94;"></path><path fill="#c6ab8b" stroke="#845057" d="M7,263S262,509,290,476" stroke-width="58" opacity="0.94" style="-webkit-tap-highlight-color: rgba(0, 0, 0, 0); opacity: 0.94;"></path><path fill="#c6ab8b" stroke="#845057" d="M7,263S613,441,999,374" stroke-width="111" opacity="0.94" style="-webkit-tap-highlight-color: rgba(0, 0, 0, 0); opacity: 0.94;"></path><path fill="#c6ab8b" stroke="#845057" d="M7,263S122,128,189,206" stroke-width="53" opacity="0.94" style="-webkit-tap-highlight-color: rgba(0, 0, 0, 0); opacity: 0.94;"></path><path fill="#c6ab8b" stroke="#845057" d="M7,263S416,266,608,439" stroke-width="119" opacity="0.94" style="-webkit-tap-highlight-color: rgba(0, 0, 0, 0); opacity: 0.94;"></path><path fill="#c6ab8b" stroke="#845057" d="M7,263S1096,206,940,93" stroke-width="47" opacity="0.94" style="-webkit-tap-highlight-color: rgba(0, 0, 0, 0); opacity: 0.94;"></path><path fill="#c6ab8b" stroke="#845057" d="M7,263S1017,275,384,316" stroke-width="29" opacity="0.94" style="-webkit-tap-highlight-color: rgba(0, 0, 0, 0); opacity: 0.94;"></path><path fill="#c6ab8b" stroke="#845057" d="M7,263S1098,281,1149,412" stroke-width="23" opacity="0.94" style="-webkit-tap-highlight-color: rgba(0, 0, 0, 0); opacity: 0.94;"></path><path fill="#c6ab8b" stroke="#845057" d="M7,263S1092,511,797,563" stroke-width="106" opacity="0.94" style="-webkit-tap-highlight-color: rgba(0, 0, 0, 0); opacity: 0.94;"></path><path fill="#c6ab8b" stroke="#845057" d="M7,263S163,318,195,246" stroke-width="14" opacity="0.94" style="-webkit-tap-highlight-color: rgba(0, 0, 0, 0); opacity: 0.94;"></path><path fill="#c6ab8b" stroke="#845057" d="M7,263S483,531,160,88" stroke-width="42" opacity="0.94" style="-webkit-tap-highlight-color: rgba(0, 0, 0, 0); opacity: 0.94;"></path><path fill="#c6ab8b" stroke="#845057" d="M7,263S346,494,105,293" stroke-width="121" opacity="0.94" style="-webkit-tap-highlight-color: rgba(0, 0, 0, 0); opacity: 0.94;"></path></svg>